<?xml version="1.0" encoding="utf-8" standalone="no"?>
<!DOCTYPE svg PUBLIC "-//W3C//DTD SVG 1.1//EN"
  "http://www.w3.org/Graphics/SVG/1.1/DTD/svg11.dtd">
<!-- Created with matplotlib (http://matplotlib.org/) -->
<svg height="432pt" version="1.1" viewBox="0 0 720 432" width="720pt" xmlns="http://www.w3.org/2000/svg" xmlns:xlink="http://www.w3.org/1999/xlink">
 <defs>
  <style type="text/css">
*{stroke-linecap:butt;stroke-linejoin:round;}
  </style>
 </defs>
 <g id="figure_1">
  <g id="patch_1">
   <path d="M 0 432 
L 720 432 
L 720 0 
L 0 0 
z
" style="fill:#ffffff;"/>
  </g>
  <g id="axes_1">
   <g id="patch_2">
    <path d="M 86.4 358.56 
L 633.6 358.56 
L 633.6 51.84 
L 86.4 51.84 
z
" style="fill:#ffffff;"/>
   </g>
   <g id="matplotlib.axis_1">
    <g id="xtick_1">
     <g id="line2d_1">
      <path clip-path="url(#p68b9759d4f)" d="M 86.4 358.56 
L 86.4 51.84 
" style="fill:none;stroke:#e6e6e6;stroke-linecap:round;stroke-width:1.6;"/>
     </g>
     <g id="line2d_2"/>
     <g id="text_1">
      <!-- 1960 -->
      <defs>
       <path d="M 37.25 0 
L 28.46875 0 
L 28.46875 56 
Q 25.296875 52.984375 20.140625 49.953125 
Q 14.984375 46.921875 10.890625 45.40625 
L 10.890625 53.90625 
Q 18.265625 57.375 23.78125 62.296875 
Q 29.296875 67.234375 31.59375 71.875 
L 37.25 71.875 
z
" id="ArialMT-31"/>
       <path d="M 5.46875 16.546875 
L 13.921875 17.328125 
Q 14.984375 11.375 18.015625 8.6875 
Q 21.046875 6 25.78125 6 
Q 29.828125 6 32.875 7.859375 
Q 35.9375 9.71875 37.890625 12.8125 
Q 39.84375 15.921875 41.15625 21.1875 
Q 42.484375 26.46875 42.484375 31.9375 
Q 42.484375 32.515625 42.4375 33.6875 
Q 39.796875 29.5 35.234375 26.875 
Q 30.671875 24.265625 25.34375 24.265625 
Q 16.453125 24.265625 10.296875 30.703125 
Q 4.15625 37.15625 4.15625 47.703125 
Q 4.15625 58.59375 10.578125 65.234375 
Q 17 71.875 26.65625 71.875 
Q 33.640625 71.875 39.421875 68.109375 
Q 45.21875 64.359375 48.21875 57.390625 
Q 51.21875 50.4375 51.21875 37.25 
Q 51.21875 23.53125 48.234375 15.40625 
Q 45.265625 7.28125 39.375 3.03125 
Q 33.5 -1.21875 25.59375 -1.21875 
Q 17.1875 -1.21875 11.859375 3.4375 
Q 6.546875 8.109375 5.46875 16.546875 
z
M 41.453125 48.140625 
Q 41.453125 55.71875 37.421875 60.15625 
Q 33.40625 64.59375 27.734375 64.59375 
Q 21.875 64.59375 17.53125 59.8125 
Q 13.1875 55.03125 13.1875 47.40625 
Q 13.1875 40.578125 17.3125 36.296875 
Q 21.4375 32.03125 27.484375 32.03125 
Q 33.59375 32.03125 37.515625 36.296875 
Q 41.453125 40.578125 41.453125 48.140625 
z
" id="ArialMT-39"/>
       <path d="M 49.75 54.046875 
L 41.015625 53.375 
Q 39.84375 58.546875 37.703125 60.890625 
Q 34.125 64.65625 28.90625 64.65625 
Q 24.703125 64.65625 21.53125 62.3125 
Q 17.390625 59.28125 14.984375 53.46875 
Q 12.59375 47.65625 12.5 36.921875 
Q 15.671875 41.75 20.265625 44.09375 
Q 24.859375 46.4375 29.890625 46.4375 
Q 38.671875 46.4375 44.84375 39.96875 
Q 51.03125 33.5 51.03125 23.25 
Q 51.03125 16.5 48.125 10.71875 
Q 45.21875 4.9375 40.140625 1.859375 
Q 35.0625 -1.21875 28.609375 -1.21875 
Q 17.625 -1.21875 10.6875 6.859375 
Q 3.765625 14.9375 3.765625 33.5 
Q 3.765625 54.25 11.421875 63.671875 
Q 18.109375 71.875 29.4375 71.875 
Q 37.890625 71.875 43.28125 67.140625 
Q 48.6875 62.40625 49.75 54.046875 
z
M 13.875 23.1875 
Q 13.875 18.65625 15.796875 14.5 
Q 17.71875 10.359375 21.1875 8.171875 
Q 24.65625 6 28.46875 6 
Q 34.03125 6 38.03125 10.484375 
Q 42.046875 14.984375 42.046875 22.703125 
Q 42.046875 30.125 38.078125 34.390625 
Q 34.125 38.671875 28.125 38.671875 
Q 22.171875 38.671875 18.015625 34.390625 
Q 13.875 30.125 13.875 23.1875 
z
" id="ArialMT-36"/>
       <path d="M 4.15625 35.296875 
Q 4.15625 48 6.765625 55.734375 
Q 9.375 63.484375 14.515625 67.671875 
Q 19.671875 71.875 27.484375 71.875 
Q 33.25 71.875 37.59375 69.546875 
Q 41.9375 67.234375 44.765625 62.859375 
Q 47.609375 58.5 49.21875 52.21875 
Q 50.828125 45.953125 50.828125 35.296875 
Q 50.828125 22.703125 48.234375 14.96875 
Q 45.65625 7.234375 40.5 3 
Q 35.359375 -1.21875 27.484375 -1.21875 
Q 17.140625 -1.21875 11.234375 6.203125 
Q 4.15625 15.140625 4.15625 35.296875 
z
M 13.1875 35.296875 
Q 13.1875 17.671875 17.3125 11.828125 
Q 21.4375 6 27.484375 6 
Q 33.546875 6 37.671875 11.859375 
Q 41.796875 17.71875 41.796875 35.296875 
Q 41.796875 52.984375 37.671875 58.78125 
Q 33.546875 64.59375 27.390625 64.59375 
Q 21.34375 64.59375 17.71875 59.46875 
Q 13.1875 52.9375 13.1875 35.296875 
z
" id="ArialMT-30"/>
      </defs>
      <g style="fill:#262626;" transform="translate(68.605 381.2125)scale(0.16 -0.16)">
       <use xlink:href="#ArialMT-31"/>
       <use x="55.615234" xlink:href="#ArialMT-39"/>
       <use x="111.230469" xlink:href="#ArialMT-36"/>
       <use x="166.845703" xlink:href="#ArialMT-30"/>
      </g>
     </g>
    </g>
    <g id="xtick_2">
     <g id="line2d_3">
      <path clip-path="url(#p68b9759d4f)" d="M 185.890909 358.56 
L 185.890909 51.84 
" style="fill:none;stroke:#e6e6e6;stroke-linecap:round;stroke-width:1.6;"/>
     </g>
     <g id="line2d_4"/>
     <g id="text_2">
      <!-- 1970 -->
      <defs>
       <path d="M 4.734375 62.203125 
L 4.734375 70.65625 
L 51.078125 70.65625 
L 51.078125 63.8125 
Q 44.234375 56.546875 37.515625 44.484375 
Q 30.8125 32.421875 27.15625 19.671875 
Q 24.515625 10.6875 23.78125 0 
L 14.75 0 
Q 14.890625 8.453125 18.0625 20.40625 
Q 21.234375 32.375 27.171875 43.484375 
Q 33.109375 54.59375 39.796875 62.203125 
z
" id="ArialMT-37"/>
      </defs>
      <g style="fill:#262626;" transform="translate(168.095909 381.2125)scale(0.16 -0.16)">
       <use xlink:href="#ArialMT-31"/>
       <use x="55.615234" xlink:href="#ArialMT-39"/>
       <use x="111.230469" xlink:href="#ArialMT-37"/>
       <use x="166.845703" xlink:href="#ArialMT-30"/>
      </g>
     </g>
    </g>
    <g id="xtick_3">
     <g id="line2d_5">
      <path clip-path="url(#p68b9759d4f)" d="M 285.381818 358.56 
L 285.381818 51.84 
" style="fill:none;stroke:#e6e6e6;stroke-linecap:round;stroke-width:1.6;"/>
     </g>
     <g id="line2d_6"/>
     <g id="text_3">
      <!-- 1980 -->
      <defs>
       <path d="M 17.671875 38.8125 
Q 12.203125 40.828125 9.5625 44.53125 
Q 6.9375 48.25 6.9375 53.421875 
Q 6.9375 61.234375 12.546875 66.546875 
Q 18.171875 71.875 27.484375 71.875 
Q 36.859375 71.875 42.578125 66.421875 
Q 48.296875 60.984375 48.296875 53.171875 
Q 48.296875 48.1875 45.671875 44.5 
Q 43.0625 40.828125 37.75 38.8125 
Q 44.34375 36.671875 47.78125 31.875 
Q 51.21875 27.09375 51.21875 20.453125 
Q 51.21875 11.28125 44.71875 5.03125 
Q 38.234375 -1.21875 27.640625 -1.21875 
Q 17.046875 -1.21875 10.546875 5.046875 
Q 4.046875 11.328125 4.046875 20.703125 
Q 4.046875 27.6875 7.59375 32.390625 
Q 11.140625 37.109375 17.671875 38.8125 
z
M 15.921875 53.71875 
Q 15.921875 48.640625 19.1875 45.40625 
Q 22.46875 42.1875 27.6875 42.1875 
Q 32.765625 42.1875 36.015625 45.375 
Q 39.265625 48.578125 39.265625 53.21875 
Q 39.265625 58.0625 35.90625 61.359375 
Q 32.5625 64.65625 27.59375 64.65625 
Q 22.5625 64.65625 19.234375 61.421875 
Q 15.921875 58.203125 15.921875 53.71875 
z
M 13.09375 20.65625 
Q 13.09375 16.890625 14.875 13.375 
Q 16.65625 9.859375 20.171875 7.921875 
Q 23.6875 6 27.734375 6 
Q 34.03125 6 38.125 10.046875 
Q 42.234375 14.109375 42.234375 20.359375 
Q 42.234375 26.703125 38.015625 30.859375 
Q 33.796875 35.015625 27.4375 35.015625 
Q 21.234375 35.015625 17.15625 30.90625 
Q 13.09375 26.8125 13.09375 20.65625 
z
" id="ArialMT-38"/>
      </defs>
      <g style="fill:#262626;" transform="translate(267.586818 381.2125)scale(0.16 -0.16)">
       <use xlink:href="#ArialMT-31"/>
       <use x="55.615234" xlink:href="#ArialMT-39"/>
       <use x="111.230469" xlink:href="#ArialMT-38"/>
       <use x="166.845703" xlink:href="#ArialMT-30"/>
      </g>
     </g>
    </g>
    <g id="xtick_4">
     <g id="line2d_7">
      <path clip-path="url(#p68b9759d4f)" d="M 384.872727 358.56 
L 384.872727 51.84 
" style="fill:none;stroke:#e6e6e6;stroke-linecap:round;stroke-width:1.6;"/>
     </g>
     <g id="line2d_8"/>
     <g id="text_4">
      <!-- 1990 -->
      <g style="fill:#262626;" transform="translate(367.077727 381.2125)scale(0.16 -0.16)">
       <use xlink:href="#ArialMT-31"/>
       <use x="55.615234" xlink:href="#ArialMT-39"/>
       <use x="111.230469" xlink:href="#ArialMT-39"/>
       <use x="166.845703" xlink:href="#ArialMT-30"/>
      </g>
     </g>
    </g>
    <g id="xtick_5">
     <g id="line2d_9">
      <path clip-path="url(#p68b9759d4f)" d="M 484.363636 358.56 
L 484.363636 51.84 
" style="fill:none;stroke:#e6e6e6;stroke-linecap:round;stroke-width:1.6;"/>
     </g>
     <g id="line2d_10"/>
     <g id="text_5">
      <!-- 2000 -->
      <defs>
       <path d="M 50.34375 8.453125 
L 50.34375 0 
L 3.03125 0 
Q 2.9375 3.171875 4.046875 6.109375 
Q 5.859375 10.9375 9.828125 15.625 
Q 13.8125 20.3125 21.34375 26.46875 
Q 33.015625 36.03125 37.109375 41.625 
Q 41.21875 47.21875 41.21875 52.203125 
Q 41.21875 57.421875 37.46875 61 
Q 33.734375 64.59375 27.734375 64.59375 
Q 21.390625 64.59375 17.578125 60.78125 
Q 13.765625 56.984375 13.71875 50.25 
L 4.6875 51.171875 
Q 5.609375 61.28125 11.65625 66.578125 
Q 17.71875 71.875 27.9375 71.875 
Q 38.234375 71.875 44.234375 66.15625 
Q 50.25 60.453125 50.25 52 
Q 50.25 47.703125 48.484375 43.546875 
Q 46.734375 39.40625 42.65625 34.8125 
Q 38.578125 30.21875 29.109375 22.21875 
Q 21.1875 15.578125 18.9375 13.203125 
Q 16.703125 10.84375 15.234375 8.453125 
z
" id="ArialMT-32"/>
      </defs>
      <g style="fill:#262626;" transform="translate(466.568636 381.2125)scale(0.16 -0.16)">
       <use xlink:href="#ArialMT-32"/>
       <use x="55.615234" xlink:href="#ArialMT-30"/>
       <use x="111.230469" xlink:href="#ArialMT-30"/>
       <use x="166.845703" xlink:href="#ArialMT-30"/>
      </g>
     </g>
    </g>
    <g id="xtick_6">
     <g id="line2d_11">
      <path clip-path="url(#p68b9759d4f)" d="M 583.854545 358.56 
L 583.854545 51.84 
" style="fill:none;stroke:#e6e6e6;stroke-linecap:round;stroke-width:1.6;"/>
     </g>
     <g id="line2d_12"/>
     <g id="text_6">
      <!-- 2010 -->
      <g style="fill:#262626;" transform="translate(566.059545 381.2125)scale(0.16 -0.16)">
       <use xlink:href="#ArialMT-32"/>
       <use x="55.615234" xlink:href="#ArialMT-30"/>
       <use x="111.230469" xlink:href="#ArialMT-31"/>
       <use x="166.845703" xlink:href="#ArialMT-30"/>
      </g>
     </g>
    </g>
   </g>
   <g id="matplotlib.axis_2">
    <g id="ytick_1">
     <g id="line2d_13">
      <path clip-path="url(#p68b9759d4f)" d="M 86.4 358.56 
L 633.6 358.56 
" style="fill:none;stroke:#e6e6e6;stroke-linecap:round;stroke-width:1.6;"/>
     </g>
     <g id="line2d_14"/>
     <g id="text_7">
      <!-- 0.0 -->
      <defs>
       <path d="M 9.078125 0 
L 9.078125 10.015625 
L 19.09375 10.015625 
L 19.09375 0 
z
" id="ArialMT-2e"/>
      </defs>
      <g style="fill:#262626;" transform="translate(52.96 364.28625)scale(0.16 -0.16)">
       <use xlink:href="#ArialMT-30"/>
       <use x="55.615234" xlink:href="#ArialMT-2e"/>
       <use x="83.398438" xlink:href="#ArialMT-30"/>
      </g>
     </g>
    </g>
    <g id="ytick_2">
     <g id="line2d_15">
      <path clip-path="url(#p68b9759d4f)" d="M 86.4 256.32 
L 633.6 256.32 
" style="fill:none;stroke:#e6e6e6;stroke-linecap:round;stroke-width:1.6;"/>
     </g>
     <g id="line2d_16"/>
     <g id="text_8">
      <!-- 0.5 -->
      <defs>
       <path d="M 4.15625 18.75 
L 13.375 19.53125 
Q 14.40625 12.796875 18.140625 9.390625 
Q 21.875 6 27.15625 6 
Q 33.5 6 37.890625 10.78125 
Q 42.28125 15.578125 42.28125 23.484375 
Q 42.28125 31 38.0625 35.34375 
Q 33.84375 39.703125 27 39.703125 
Q 22.75 39.703125 19.328125 37.765625 
Q 15.921875 35.84375 13.96875 32.765625 
L 5.71875 33.84375 
L 12.640625 70.609375 
L 48.25 70.609375 
L 48.25 62.203125 
L 19.671875 62.203125 
L 15.828125 42.96875 
Q 22.265625 47.46875 29.34375 47.46875 
Q 38.71875 47.46875 45.15625 40.96875 
Q 51.609375 34.46875 51.609375 24.265625 
Q 51.609375 14.546875 45.953125 7.46875 
Q 39.0625 -1.21875 27.15625 -1.21875 
Q 17.390625 -1.21875 11.203125 4.25 
Q 5.03125 9.71875 4.15625 18.75 
z
" id="ArialMT-35"/>
      </defs>
      <g style="fill:#262626;" transform="translate(52.96 262.04625)scale(0.16 -0.16)">
       <use xlink:href="#ArialMT-30"/>
       <use x="55.615234" xlink:href="#ArialMT-2e"/>
       <use x="83.398438" xlink:href="#ArialMT-35"/>
      </g>
     </g>
    </g>
    <g id="ytick_3">
     <g id="line2d_17">
      <path clip-path="url(#p68b9759d4f)" d="M 86.4 154.08 
L 633.6 154.08 
" style="fill:none;stroke:#e6e6e6;stroke-linecap:round;stroke-width:1.6;"/>
     </g>
     <g id="line2d_18"/>
     <g id="text_9">
      <!-- 1.0 -->
      <g style="fill:#262626;" transform="translate(52.96 159.80625)scale(0.16 -0.16)">
       <use xlink:href="#ArialMT-31"/>
       <use x="55.615234" xlink:href="#ArialMT-2e"/>
       <use x="83.398438" xlink:href="#ArialMT-30"/>
      </g>
     </g>
    </g>
    <g id="ytick_4">
     <g id="line2d_19">
      <path clip-path="url(#p68b9759d4f)" d="M 86.4 51.84 
L 633.6 51.84 
" style="fill:none;stroke:#e6e6e6;stroke-linecap:round;stroke-width:1.6;"/>
     </g>
     <g id="line2d_20"/>
     <g id="text_10">
      <!-- 1.5 -->
      <g style="fill:#262626;" transform="translate(52.96 57.56625)scale(0.16 -0.16)">
       <use xlink:href="#ArialMT-31"/>
       <use x="55.615234" xlink:href="#ArialMT-2e"/>
       <use x="83.398438" xlink:href="#ArialMT-35"/>
      </g>
     </g>
    </g>
    <g id="text_11">
     <!-- Billions of people -->
     <defs>
      <path d="M 7.328125 0 
L 7.328125 71.578125 
L 34.1875 71.578125 
Q 42.390625 71.578125 47.34375 69.40625 
Q 52.296875 67.234375 55.09375 62.71875 
Q 57.90625 58.203125 57.90625 53.265625 
Q 57.90625 48.6875 55.421875 44.625 
Q 52.9375 40.578125 47.90625 38.09375 
Q 54.390625 36.1875 57.875 31.59375 
Q 61.375 27 61.375 20.75 
Q 61.375 15.71875 59.25 11.390625 
Q 57.125 7.078125 54 4.734375 
Q 50.875 2.390625 46.15625 1.1875 
Q 41.453125 0 34.625 0 
z
M 16.796875 41.5 
L 32.28125 41.5 
Q 38.578125 41.5 41.3125 42.328125 
Q 44.921875 43.40625 46.75 45.890625 
Q 48.578125 48.390625 48.578125 52.15625 
Q 48.578125 55.71875 46.875 58.421875 
Q 45.171875 61.140625 41.984375 62.140625 
Q 38.8125 63.140625 31.109375 63.140625 
L 16.796875 63.140625 
z
M 16.796875 8.453125 
L 34.625 8.453125 
Q 39.203125 8.453125 41.0625 8.796875 
Q 44.34375 9.375 46.53125 10.734375 
Q 48.734375 12.109375 50.140625 14.71875 
Q 51.5625 17.328125 51.5625 20.75 
Q 51.5625 24.75 49.515625 27.703125 
Q 47.46875 30.671875 43.828125 31.859375 
Q 40.1875 33.0625 33.34375 33.0625 
L 16.796875 33.0625 
z
" id="ArialMT-42"/>
      <path d="M 6.640625 61.46875 
L 6.640625 71.578125 
L 15.4375 71.578125 
L 15.4375 61.46875 
z
M 6.640625 0 
L 6.640625 51.859375 
L 15.4375 51.859375 
L 15.4375 0 
z
" id="ArialMT-69"/>
      <path d="M 6.390625 0 
L 6.390625 71.578125 
L 15.1875 71.578125 
L 15.1875 0 
z
" id="ArialMT-6c"/>
      <path d="M 3.328125 25.921875 
Q 3.328125 40.328125 11.328125 47.265625 
Q 18.015625 53.03125 27.640625 53.03125 
Q 38.328125 53.03125 45.109375 46.015625 
Q 51.90625 39.015625 51.90625 26.65625 
Q 51.90625 16.65625 48.90625 10.90625 
Q 45.90625 5.171875 40.15625 2 
Q 34.421875 -1.171875 27.640625 -1.171875 
Q 16.75 -1.171875 10.03125 5.8125 
Q 3.328125 12.796875 3.328125 25.921875 
z
M 12.359375 25.921875 
Q 12.359375 15.96875 16.703125 11.015625 
Q 21.046875 6.0625 27.640625 6.0625 
Q 34.1875 6.0625 38.53125 11.03125 
Q 42.875 16.015625 42.875 26.21875 
Q 42.875 35.84375 38.5 40.796875 
Q 34.125 45.75 27.640625 45.75 
Q 21.046875 45.75 16.703125 40.8125 
Q 12.359375 35.890625 12.359375 25.921875 
z
" id="ArialMT-6f"/>
      <path d="M 6.59375 0 
L 6.59375 51.859375 
L 14.5 51.859375 
L 14.5 44.484375 
Q 20.21875 53.03125 31 53.03125 
Q 35.6875 53.03125 39.625 51.34375 
Q 43.5625 49.65625 45.515625 46.921875 
Q 47.46875 44.1875 48.25 40.4375 
Q 48.734375 37.984375 48.734375 31.890625 
L 48.734375 0 
L 39.9375 0 
L 39.9375 31.546875 
Q 39.9375 36.921875 38.90625 39.578125 
Q 37.890625 42.234375 35.28125 43.8125 
Q 32.671875 45.40625 29.15625 45.40625 
Q 23.53125 45.40625 19.453125 41.84375 
Q 15.375 38.28125 15.375 28.328125 
L 15.375 0 
z
" id="ArialMT-6e"/>
      <path d="M 3.078125 15.484375 
L 11.765625 16.84375 
Q 12.5 11.625 15.84375 8.84375 
Q 19.1875 6.0625 25.203125 6.0625 
Q 31.25 6.0625 34.171875 8.515625 
Q 37.109375 10.984375 37.109375 14.3125 
Q 37.109375 17.28125 34.515625 19 
Q 32.71875 20.171875 25.53125 21.96875 
Q 15.875 24.421875 12.140625 26.203125 
Q 8.40625 27.984375 6.46875 31.125 
Q 4.546875 34.28125 4.546875 38.09375 
Q 4.546875 41.546875 6.125 44.5 
Q 7.71875 47.46875 10.453125 49.421875 
Q 12.5 50.921875 16.03125 51.96875 
Q 19.578125 53.03125 23.640625 53.03125 
Q 29.734375 53.03125 34.34375 51.265625 
Q 38.96875 49.515625 41.15625 46.5 
Q 43.359375 43.5 44.1875 38.484375 
L 35.59375 37.3125 
Q 35.015625 41.3125 32.203125 43.546875 
Q 29.390625 45.796875 24.265625 45.796875 
Q 18.21875 45.796875 15.625 43.796875 
Q 13.03125 41.796875 13.03125 39.109375 
Q 13.03125 37.40625 14.109375 36.03125 
Q 15.1875 34.625 17.484375 33.6875 
Q 18.796875 33.203125 25.25 31.453125 
Q 34.578125 28.953125 38.25 27.359375 
Q 41.9375 25.78125 44.03125 22.75 
Q 46.140625 19.734375 46.140625 15.234375 
Q 46.140625 10.84375 43.578125 6.953125 
Q 41.015625 3.078125 36.171875 0.953125 
Q 31.34375 -1.171875 25.25 -1.171875 
Q 15.140625 -1.171875 9.84375 3.03125 
Q 4.546875 7.234375 3.078125 15.484375 
z
" id="ArialMT-73"/>
      <path id="ArialMT-20"/>
      <path d="M 8.6875 0 
L 8.6875 45.015625 
L 0.921875 45.015625 
L 0.921875 51.859375 
L 8.6875 51.859375 
L 8.6875 57.375 
Q 8.6875 62.59375 9.625 65.140625 
Q 10.890625 68.5625 14.078125 70.671875 
Q 17.28125 72.796875 23.046875 72.796875 
Q 26.765625 72.796875 31.25 71.921875 
L 29.9375 64.265625 
Q 27.203125 64.75 24.75 64.75 
Q 20.75 64.75 19.09375 63.03125 
Q 17.4375 61.328125 17.4375 56.640625 
L 17.4375 51.859375 
L 27.546875 51.859375 
L 27.546875 45.015625 
L 17.4375 45.015625 
L 17.4375 0 
z
" id="ArialMT-66"/>
      <path d="M 6.59375 -19.875 
L 6.59375 51.859375 
L 14.59375 51.859375 
L 14.59375 45.125 
Q 17.4375 49.078125 21 51.046875 
Q 24.5625 53.03125 29.640625 53.03125 
Q 36.28125 53.03125 41.359375 49.609375 
Q 46.4375 46.1875 49.015625 39.953125 
Q 51.609375 33.734375 51.609375 26.3125 
Q 51.609375 18.359375 48.75 11.984375 
Q 45.90625 5.609375 40.453125 2.21875 
Q 35.015625 -1.171875 29 -1.171875 
Q 24.609375 -1.171875 21.109375 0.6875 
Q 17.625 2.546875 15.375 5.375 
L 15.375 -19.875 
z
M 14.546875 25.640625 
Q 14.546875 15.625 18.59375 10.84375 
Q 22.65625 6.0625 28.421875 6.0625 
Q 34.28125 6.0625 38.453125 11.015625 
Q 42.625 15.96875 42.625 26.375 
Q 42.625 36.28125 38.546875 41.203125 
Q 34.46875 46.140625 28.8125 46.140625 
Q 23.1875 46.140625 18.859375 40.890625 
Q 14.546875 35.640625 14.546875 25.640625 
z
" id="ArialMT-70"/>
      <path d="M 42.09375 16.703125 
L 51.171875 15.578125 
Q 49.03125 7.625 43.21875 3.21875 
Q 37.40625 -1.171875 28.375 -1.171875 
Q 17 -1.171875 10.328125 5.828125 
Q 3.65625 12.84375 3.65625 25.484375 
Q 3.65625 38.578125 10.390625 45.796875 
Q 17.140625 53.03125 27.875 53.03125 
Q 38.28125 53.03125 44.875 45.953125 
Q 51.46875 38.875 51.46875 26.03125 
Q 51.46875 25.25 51.421875 23.6875 
L 12.75 23.6875 
Q 13.234375 15.140625 17.578125 10.59375 
Q 21.921875 6.0625 28.421875 6.0625 
Q 33.25 6.0625 36.671875 8.59375 
Q 40.09375 11.140625 42.09375 16.703125 
z
M 13.234375 30.90625 
L 42.1875 30.90625 
Q 41.609375 37.453125 38.875 40.71875 
Q 34.671875 45.796875 27.984375 45.796875 
Q 21.921875 45.796875 17.796875 41.75 
Q 13.671875 37.703125 13.234375 30.90625 
z
" id="ArialMT-65"/>
     </defs>
     <g style="fill:#262626;" transform="translate(44.985 280.801562)rotate(-90)scale(0.2 -0.2)">
      <use xlink:href="#ArialMT-42"/>
      <use x="66.699219" xlink:href="#ArialMT-69"/>
      <use x="88.916016" xlink:href="#ArialMT-6c"/>
      <use x="111.132812" xlink:href="#ArialMT-6c"/>
      <use x="133.349609" xlink:href="#ArialMT-69"/>
      <use x="155.566406" xlink:href="#ArialMT-6f"/>
      <use x="211.181641" xlink:href="#ArialMT-6e"/>
      <use x="266.796875" xlink:href="#ArialMT-73"/>
      <use x="316.796875" xlink:href="#ArialMT-20"/>
      <use x="344.580078" xlink:href="#ArialMT-6f"/>
      <use x="400.195312" xlink:href="#ArialMT-66"/>
      <use x="427.978516" xlink:href="#ArialMT-20"/>
      <use x="455.761719" xlink:href="#ArialMT-70"/>
      <use x="511.376953" xlink:href="#ArialMT-65"/>
      <use x="566.992188" xlink:href="#ArialMT-6f"/>
      <use x="622.607422" xlink:href="#ArialMT-70"/>
      <use x="678.222656" xlink:href="#ArialMT-6c"/>
      <use x="700.439453" xlink:href="#ArialMT-65"/>
     </g>
    </g>
   </g>
   <g id="line2d_21">
    <path clip-path="url(#p68b9759d4f)" d="M 86.4 222.157526 
L 96.349091 223.535722 
L 106.298182 222.42335 
L 116.247273 219.036139 
L 126.196364 215.76037 
L 136.145455 212.318971 
L 146.094545 208.185408 
L 156.043636 204.269616 
L 165.992727 200.188195 
L 175.941818 195.788808 
L 185.890909 191.230949 
L 195.84 186.57085 
L 205.789091 182.292106 
L 215.738182 178.220909 
L 225.687273 174.456432 
L 235.636364 171.17555 
L 245.585455 168.253531 
L 255.534545 165.642322 
L 265.483636 163.043381 
L 275.432727 160.417858 
L 285.381818 157.917067 
L 295.330909 155.330395 
L 305.28 152.315338 
L 315.229091 149.313571 
L 325.178182 146.550024 
L 335.127273 143.643341 
L 345.076364 140.422781 
L 355.025455 136.896523 
L 364.974545 133.298698 
L 374.923636 129.818448 
L 384.872727 126.437371 
L 394.821818 123.248506 
L 404.770909 120.346934 
L 414.72 117.592589 
L 424.669091 114.853579 
L 434.618182 112.19125 
L 444.567273 109.595376 
L 454.516364 107.034264 
L 464.465455 104.609131 
L 474.414545 102.400747 
L 484.363636 100.37435 
L 494.312727 98.492112 
L 504.261818 96.743808 
L 514.210909 95.107968 
L 524.16 93.538584 
L 534.109091 91.975334 
L 544.058182 90.48263 
L 554.007273 89.078875 
L 563.956364 87.694546 
L 573.905455 86.343955 
L 583.854545 85.026082 
L 593.803636 83.712298 
L 603.752727 82.369886 
L 613.701818 81.002938 
L 623.650909 79.59407 
L 633.6 78.172934 
" style="fill:none;stroke:#0072b2;stroke-linecap:round;stroke-width:5;"/>
   </g>
   <g id="line2d_22">
    <path clip-path="url(#p68b9759d4f)" d="M 86.4 266.61314 
L 96.349091 264.766771 
L 106.298182 262.852288 
L 116.247273 260.873778 
L 126.196364 258.837125 
L 136.145455 256.745263 
L 146.094545 254.601773 
L 156.043636 252.40174 
L 165.992727 250.129423 
L 175.941818 247.763565 
L 185.890909 245.289689 
L 195.84 242.700527 
L 205.789091 240.002367 
L 215.738182 237.210958 
L 225.687273 234.349336 
L 235.636364 231.434039 
L 245.585455 228.473339 
L 255.534545 225.462422 
L 265.483636 222.389318 
L 275.432727 219.235803 
L 285.381818 215.990462 
L 295.330909 212.650964 
L 305.28 209.227548 
L 315.229091 205.736789 
L 325.178182 202.201448 
L 335.127273 198.639233 
L 345.076364 195.056313 
L 355.025455 191.452351 
L 364.974545 187.83057 
L 374.923636 184.19251 
L 384.872727 180.539349 
L 394.821818 176.876684 
L 404.770909 173.206782 
L 414.72 169.523223 
L 424.669091 165.816291 
L 434.618182 162.080284 
L 444.567273 158.314692 
L 454.516364 154.526329 
L 464.465455 150.725934 
L 474.414545 146.92798 
L 484.363636 143.14419 
L 494.312727 139.380303 
L 504.261818 135.63808 
L 514.210909 131.920589 
L 524.16 128.229777 
L 534.109091 124.56816 
L 544.058182 120.936183 
L 554.007273 117.337882 
L 563.956364 113.783104 
L 573.905455 110.284027 
L 583.854545 106.848289 
L 593.803636 103.48224 
L 603.752727 100.181191 
L 613.701818 96.92807 
L 623.650909 93.698785 
L 633.6 90.476388 
" style="fill:none;stroke:#009e73;stroke-linecap:round;stroke-width:5;"/>
   </g>
   <g id="line2d_23">
    <path clip-path="url(#p68b9759d4f)" d="M 86.4 321.616394 
L 96.349091 320.998864 
L 106.298182 320.41671 
L 116.247273 319.863796 
L 126.196364 319.322537 
L 136.145455 318.828923 
L 146.094545 318.367411 
L 156.043636 317.92737 
L 165.992727 317.519637 
L 175.941818 317.116607 
L 185.890909 316.630967 
L 195.84 316.097479 
L 205.789091 315.640466 
L 215.738182 315.228848 
L 225.687273 314.831134 
L 235.636364 314.397841 
L 245.585455 313.976203 
L 255.534545 313.525529 
L 265.483636 313.045819 
L 275.432727 312.540754 
L 285.381818 312.097032 
L 295.330909 311.638792 
L 305.28 311.189345 
L 315.229091 310.754212 
L 325.178182 310.338504 
L 335.127273 309.9093 
L 345.076364 309.457604 
L 355.025455 309.016745 
L 364.974545 308.564844 
L 374.923636 308.090451 
L 384.872727 307.517089 
L 394.821818 306.830445 
L 404.770909 306.108017 
L 414.72 305.411763 
L 424.669091 304.755996 
L 434.618182 304.111475 
L 444.567273 303.474315 
L 454.516364 302.807097 
L 464.465455 302.153374 
L 474.414545 301.501901 
L 484.363636 300.86343 
L 494.312727 300.289548 
L 504.261818 299.746401 
L 514.210909 299.23873 
L 524.16 298.687173 
L 534.109091 298.132766 
L 544.058182 297.547276 
L 554.007273 296.964243 
L 563.956364 296.378866 
L 573.905455 295.831358 
L 583.854545 295.304753 
L 593.803636 294.819728 
L 603.752727 294.332296 
L 613.701818 293.856926 
L 623.650909 293.349815 
L 633.6 292.83628 
" style="fill:none;stroke:#d55e00;stroke-linecap:round;stroke-width:5;"/>
   </g>
   <g id="patch_3">
    <path d="M 86.4 358.56 
L 86.4 51.84 
" style="fill:none;stroke:#e6e6e6;stroke-linecap:square;stroke-linejoin:miter;"/>
   </g>
   <g id="patch_4">
    <path d="M 86.4 358.56 
L 633.6 358.56 
" style="fill:none;stroke:#e6e6e6;stroke-linecap:square;stroke-linejoin:miter;"/>
   </g>
   <g id="text_12">
    <!-- Year -->
    <defs>
     <path d="M 27.875 0 
L 27.875 30.328125 
L 0.296875 71.578125 
L 11.8125 71.578125 
L 25.921875 50 
Q 29.828125 43.953125 33.203125 37.890625 
Q 36.421875 43.5 41.015625 50.53125 
L 54.890625 71.578125 
L 65.921875 71.578125 
L 37.359375 30.328125 
L 37.359375 0 
z
" id="ArialMT-59"/>
     <path d="M 40.4375 6.390625 
Q 35.546875 2.25 31.03125 0.53125 
Q 26.515625 -1.171875 21.34375 -1.171875 
Q 12.796875 -1.171875 8.203125 3 
Q 3.609375 7.171875 3.609375 13.671875 
Q 3.609375 17.484375 5.34375 20.625 
Q 7.078125 23.78125 9.890625 25.6875 
Q 12.703125 27.59375 16.21875 28.5625 
Q 18.796875 29.25 24.03125 29.890625 
Q 34.671875 31.15625 39.703125 32.90625 
Q 39.75 34.71875 39.75 35.203125 
Q 39.75 40.578125 37.25 42.78125 
Q 33.890625 45.75 27.25 45.75 
Q 21.046875 45.75 18.09375 43.578125 
Q 15.140625 41.40625 13.71875 35.890625 
L 5.125 37.0625 
Q 6.296875 42.578125 8.984375 45.96875 
Q 11.671875 49.359375 16.75 51.1875 
Q 21.828125 53.03125 28.515625 53.03125 
Q 35.15625 53.03125 39.296875 51.46875 
Q 43.453125 49.90625 45.40625 47.53125 
Q 47.359375 45.171875 48.140625 41.546875 
Q 48.578125 39.3125 48.578125 33.453125 
L 48.578125 21.734375 
Q 48.578125 9.46875 49.140625 6.21875 
Q 49.703125 2.984375 51.375 0 
L 42.1875 0 
Q 40.828125 2.734375 40.4375 6.390625 
z
M 39.703125 26.03125 
Q 34.90625 24.078125 25.34375 22.703125 
Q 19.921875 21.921875 17.671875 20.9375 
Q 15.4375 19.96875 14.203125 18.09375 
Q 12.984375 16.21875 12.984375 13.921875 
Q 12.984375 10.40625 15.640625 8.0625 
Q 18.3125 5.71875 23.4375 5.71875 
Q 28.515625 5.71875 32.46875 7.9375 
Q 36.421875 10.15625 38.28125 14.015625 
Q 39.703125 17 39.703125 22.796875 
z
" id="ArialMT-61"/>
     <path d="M 6.5 0 
L 6.5 51.859375 
L 14.40625 51.859375 
L 14.40625 44 
Q 17.4375 49.515625 20 51.265625 
Q 22.5625 53.03125 25.640625 53.03125 
Q 30.078125 53.03125 34.671875 50.203125 
L 31.640625 42.046875 
Q 28.421875 43.953125 25.203125 43.953125 
Q 22.3125 43.953125 20.015625 42.21875 
Q 17.71875 40.484375 16.75 37.40625 
Q 15.28125 32.71875 15.28125 27.15625 
L 15.28125 0 
z
" id="ArialMT-72"/>
    </defs>
    <g style="fill:#808080;" transform="translate(638.6 379.780937)scale(0.14 -0.14)">
     <use xlink:href="#ArialMT-59"/>
     <use x="66.558594" xlink:href="#ArialMT-65"/>
     <use x="122.173828" xlink:href="#ArialMT-61"/>
     <use x="177.789062" xlink:href="#ArialMT-72"/>
    </g>
   </g>
   <g id="text_13">
    <!-- These three nations make up more than 40% of the world's population. -->
    <defs>
     <path d="M 25.921875 0 
L 25.921875 63.140625 
L 2.34375 63.140625 
L 2.34375 71.578125 
L 59.078125 71.578125 
L 59.078125 63.140625 
L 35.40625 63.140625 
L 35.40625 0 
z
" id="ArialMT-54"/>
     <path d="M 6.59375 0 
L 6.59375 71.578125 
L 15.375 71.578125 
L 15.375 45.90625 
Q 21.53125 53.03125 30.90625 53.03125 
Q 36.671875 53.03125 40.921875 50.75 
Q 45.171875 48.484375 47 44.484375 
Q 48.828125 40.484375 48.828125 32.859375 
L 48.828125 0 
L 40.046875 0 
L 40.046875 32.859375 
Q 40.046875 39.453125 37.1875 42.453125 
Q 34.328125 45.453125 29.109375 45.453125 
Q 25.203125 45.453125 21.75 43.421875 
Q 18.3125 41.40625 16.84375 37.9375 
Q 15.375 34.46875 15.375 28.375 
L 15.375 0 
z
" id="ArialMT-68"/>
     <path d="M 25.78125 7.859375 
L 27.046875 0.09375 
Q 23.34375 -0.6875 20.40625 -0.6875 
Q 15.625 -0.6875 12.984375 0.828125 
Q 10.359375 2.34375 9.28125 4.8125 
Q 8.203125 7.28125 8.203125 15.1875 
L 8.203125 45.015625 
L 1.765625 45.015625 
L 1.765625 51.859375 
L 8.203125 51.859375 
L 8.203125 64.703125 
L 16.9375 69.96875 
L 16.9375 51.859375 
L 25.78125 51.859375 
L 25.78125 45.015625 
L 16.9375 45.015625 
L 16.9375 14.703125 
Q 16.9375 10.9375 17.40625 9.859375 
Q 17.875 8.796875 18.921875 8.15625 
Q 19.96875 7.515625 21.921875 7.515625 
Q 23.390625 7.515625 25.78125 7.859375 
z
" id="ArialMT-74"/>
     <path d="M 6.59375 0 
L 6.59375 51.859375 
L 14.453125 51.859375 
L 14.453125 44.578125 
Q 16.890625 48.390625 20.9375 50.703125 
Q 25 53.03125 30.171875 53.03125 
Q 35.9375 53.03125 39.625 50.640625 
Q 43.3125 48.25 44.828125 43.953125 
Q 50.984375 53.03125 60.84375 53.03125 
Q 68.5625 53.03125 72.703125 48.75 
Q 76.859375 44.484375 76.859375 35.59375 
L 76.859375 0 
L 68.109375 0 
L 68.109375 32.671875 
Q 68.109375 37.9375 67.25 40.25 
Q 66.40625 42.578125 64.15625 43.984375 
Q 61.921875 45.40625 58.890625 45.40625 
Q 53.421875 45.40625 49.796875 41.765625 
Q 46.1875 38.140625 46.1875 30.125 
L 46.1875 0 
L 37.40625 0 
L 37.40625 33.6875 
Q 37.40625 39.546875 35.25 42.46875 
Q 33.109375 45.40625 28.21875 45.40625 
Q 24.515625 45.40625 21.359375 43.453125 
Q 18.21875 41.5 16.796875 37.734375 
Q 15.375 33.984375 15.375 26.90625 
L 15.375 0 
z
" id="ArialMT-6d"/>
     <path d="M 6.640625 0 
L 6.640625 71.578125 
L 15.4375 71.578125 
L 15.4375 30.765625 
L 36.234375 51.859375 
L 47.609375 51.859375 
L 27.78125 32.625 
L 49.609375 0 
L 38.765625 0 
L 21.625 26.515625 
L 15.4375 20.5625 
L 15.4375 0 
z
" id="ArialMT-6b"/>
     <path d="M 40.578125 0 
L 40.578125 7.625 
Q 34.515625 -1.171875 24.125 -1.171875 
Q 19.53125 -1.171875 15.546875 0.578125 
Q 11.578125 2.34375 9.640625 5 
Q 7.71875 7.671875 6.9375 11.53125 
Q 6.390625 14.109375 6.390625 19.734375 
L 6.390625 51.859375 
L 15.1875 51.859375 
L 15.1875 23.09375 
Q 15.1875 16.21875 15.71875 13.8125 
Q 16.546875 10.359375 19.234375 8.375 
Q 21.921875 6.390625 25.875 6.390625 
Q 29.828125 6.390625 33.296875 8.421875 
Q 36.765625 10.453125 38.203125 13.9375 
Q 39.65625 17.4375 39.65625 24.078125 
L 39.65625 51.859375 
L 48.4375 51.859375 
L 48.4375 0 
z
" id="ArialMT-75"/>
     <path d="M 32.328125 0 
L 32.328125 17.140625 
L 1.265625 17.140625 
L 1.265625 25.203125 
L 33.9375 71.578125 
L 41.109375 71.578125 
L 41.109375 25.203125 
L 50.78125 25.203125 
L 50.78125 17.140625 
L 41.109375 17.140625 
L 41.109375 0 
z
M 32.328125 25.203125 
L 32.328125 57.46875 
L 9.90625 25.203125 
z
" id="ArialMT-34"/>
     <path d="M 5.8125 54.390625 
Q 5.8125 62.0625 9.671875 67.421875 
Q 13.53125 72.796875 20.84375 72.796875 
Q 27.59375 72.796875 32 67.984375 
Q 36.421875 63.1875 36.421875 53.859375 
Q 36.421875 44.78125 31.953125 39.875 
Q 27.484375 34.96875 20.953125 34.96875 
Q 14.453125 34.96875 10.125 39.796875 
Q 5.8125 44.625 5.8125 54.390625 
z
M 21.09375 66.75 
Q 17.828125 66.75 15.65625 63.90625 
Q 13.484375 61.078125 13.484375 53.515625 
Q 13.484375 46.625 15.671875 43.8125 
Q 17.875 41.015625 21.09375 41.015625 
Q 24.421875 41.015625 26.59375 43.84375 
Q 28.765625 46.6875 28.765625 54.203125 
Q 28.765625 61.140625 26.5625 63.9375 
Q 24.359375 66.75 21.09375 66.75 
z
M 21.140625 -2.640625 
L 60.296875 72.796875 
L 67.4375 72.796875 
L 28.421875 -2.640625 
z
M 52.09375 16.796875 
Q 52.09375 24.515625 55.953125 29.859375 
Q 59.8125 35.203125 67.1875 35.203125 
Q 73.921875 35.203125 78.34375 30.390625 
Q 82.765625 25.59375 82.765625 16.265625 
Q 82.765625 7.171875 78.296875 2.265625 
Q 73.828125 -2.640625 67.234375 -2.640625 
Q 60.75 -2.640625 56.421875 2.21875 
Q 52.09375 7.078125 52.09375 16.796875 
z
M 67.4375 29.15625 
Q 64.109375 29.15625 61.9375 26.3125 
Q 59.765625 23.484375 59.765625 15.921875 
Q 59.765625 9.078125 61.953125 6.25 
Q 64.15625 3.421875 67.390625 3.421875 
Q 70.75 3.421875 72.921875 6.25 
Q 75.09375 9.078125 75.09375 16.609375 
Q 75.09375 23.53125 72.890625 26.34375 
Q 70.703125 29.15625 67.4375 29.15625 
z
" id="ArialMT-25"/>
     <path d="M 16.15625 0 
L 0.296875 51.859375 
L 9.375 51.859375 
L 17.625 21.921875 
L 20.703125 10.796875 
Q 20.90625 11.625 23.390625 21.484375 
L 31.640625 51.859375 
L 40.671875 51.859375 
L 48.4375 21.78125 
L 51.03125 11.859375 
L 54 21.875 
L 62.890625 51.859375 
L 71.4375 51.859375 
L 55.21875 0 
L 46.09375 0 
L 37.84375 31.0625 
L 35.84375 39.890625 
L 25.34375 0 
z
" id="ArialMT-77"/>
     <path d="M 40.234375 0 
L 40.234375 6.546875 
Q 35.296875 -1.171875 25.734375 -1.171875 
Q 19.53125 -1.171875 14.328125 2.25 
Q 9.125 5.671875 6.265625 11.796875 
Q 3.421875 17.921875 3.421875 25.875 
Q 3.421875 33.640625 6 39.96875 
Q 8.59375 46.296875 13.765625 49.65625 
Q 18.953125 53.03125 25.34375 53.03125 
Q 30.03125 53.03125 33.6875 51.046875 
Q 37.359375 49.078125 39.65625 45.90625 
L 39.65625 71.578125 
L 48.390625 71.578125 
L 48.390625 0 
z
M 12.453125 25.875 
Q 12.453125 15.921875 16.640625 10.984375 
Q 20.84375 6.0625 26.5625 6.0625 
Q 32.328125 6.0625 36.34375 10.765625 
Q 40.375 15.484375 40.375 25.140625 
Q 40.375 35.796875 36.265625 40.765625 
Q 32.171875 45.75 26.171875 45.75 
Q 20.3125 45.75 16.375 40.96875 
Q 12.453125 36.1875 12.453125 25.875 
z
" id="ArialMT-64"/>
     <path d="M 6.640625 46.234375 
L 4.390625 59.625 
L 4.390625 71.578125 
L 14.40625 71.578125 
L 14.40625 59.625 
L 12.0625 46.234375 
z
" id="ArialMT-27"/>
    </defs>
    <g style="fill:#262626;" transform="translate(140.770937 45.84)scale(0.14 -0.14)">
     <use xlink:href="#ArialMT-54"/>
     <use x="61.083984" xlink:href="#ArialMT-68"/>
     <use x="116.699219" xlink:href="#ArialMT-65"/>
     <use x="172.314453" xlink:href="#ArialMT-73"/>
     <use x="222.314453" xlink:href="#ArialMT-65"/>
     <use x="277.929688" xlink:href="#ArialMT-20"/>
     <use x="305.712891" xlink:href="#ArialMT-74"/>
     <use x="333.496094" xlink:href="#ArialMT-68"/>
     <use x="389.111328" xlink:href="#ArialMT-72"/>
     <use x="422.412109" xlink:href="#ArialMT-65"/>
     <use x="478.027344" xlink:href="#ArialMT-65"/>
     <use x="533.642578" xlink:href="#ArialMT-20"/>
     <use x="561.425781" xlink:href="#ArialMT-6e"/>
     <use x="617.041016" xlink:href="#ArialMT-61"/>
     <use x="672.65625" xlink:href="#ArialMT-74"/>
     <use x="700.439453" xlink:href="#ArialMT-69"/>
     <use x="722.65625" xlink:href="#ArialMT-6f"/>
     <use x="778.271484" xlink:href="#ArialMT-6e"/>
     <use x="833.886719" xlink:href="#ArialMT-73"/>
     <use x="883.886719" xlink:href="#ArialMT-20"/>
     <use x="911.669922" xlink:href="#ArialMT-6d"/>
     <use x="994.970703" xlink:href="#ArialMT-61"/>
     <use x="1050.585938" xlink:href="#ArialMT-6b"/>
     <use x="1100.585938" xlink:href="#ArialMT-65"/>
     <use x="1156.201172" xlink:href="#ArialMT-20"/>
     <use x="1183.984375" xlink:href="#ArialMT-75"/>
     <use x="1239.599609" xlink:href="#ArialMT-70"/>
     <use x="1295.214844" xlink:href="#ArialMT-20"/>
     <use x="1322.998047" xlink:href="#ArialMT-6d"/>
     <use x="1406.298828" xlink:href="#ArialMT-6f"/>
     <use x="1461.914062" xlink:href="#ArialMT-72"/>
     <use x="1495.214844" xlink:href="#ArialMT-65"/>
     <use x="1550.830078" xlink:href="#ArialMT-20"/>
     <use x="1578.613281" xlink:href="#ArialMT-74"/>
     <use x="1606.396484" xlink:href="#ArialMT-68"/>
     <use x="1662.011719" xlink:href="#ArialMT-61"/>
     <use x="1717.626953" xlink:href="#ArialMT-6e"/>
     <use x="1773.242188" xlink:href="#ArialMT-20"/>
     <use x="1801.025391" xlink:href="#ArialMT-34"/>
     <use x="1856.640625" xlink:href="#ArialMT-30"/>
     <use x="1912.255859" xlink:href="#ArialMT-25"/>
     <use x="2001.171875" xlink:href="#ArialMT-20"/>
     <use x="2028.955078" xlink:href="#ArialMT-6f"/>
     <use x="2084.570312" xlink:href="#ArialMT-66"/>
     <use x="2112.353516" xlink:href="#ArialMT-20"/>
     <use x="2140.136719" xlink:href="#ArialMT-74"/>
     <use x="2167.919922" xlink:href="#ArialMT-68"/>
     <use x="2223.535156" xlink:href="#ArialMT-65"/>
     <use x="2279.150391" xlink:href="#ArialMT-20"/>
     <use x="2306.933594" xlink:href="#ArialMT-77"/>
     <use x="2379.150391" xlink:href="#ArialMT-6f"/>
     <use x="2434.765625" xlink:href="#ArialMT-72"/>
     <use x="2468.066406" xlink:href="#ArialMT-6c"/>
     <use x="2490.283203" xlink:href="#ArialMT-64"/>
     <use x="2545.898438" xlink:href="#ArialMT-27"/>
     <use x="2564.990234" xlink:href="#ArialMT-73"/>
     <use x="2614.990234" xlink:href="#ArialMT-20"/>
     <use x="2642.773438" xlink:href="#ArialMT-70"/>
     <use x="2698.388672" xlink:href="#ArialMT-6f"/>
     <use x="2754.003906" xlink:href="#ArialMT-70"/>
     <use x="2809.619141" xlink:href="#ArialMT-75"/>
     <use x="2865.234375" xlink:href="#ArialMT-6c"/>
     <use x="2887.451172" xlink:href="#ArialMT-61"/>
     <use x="2943.066406" xlink:href="#ArialMT-74"/>
     <use x="2970.849609" xlink:href="#ArialMT-69"/>
     <use x="2993.066406" xlink:href="#ArialMT-6f"/>
     <use x="3048.681641" xlink:href="#ArialMT-6e"/>
     <use x="3104.296875" xlink:href="#ArialMT-2e"/>
    </g>
   </g>
   <g id="legend_1">
    <g id="patch_5">
     <path d="M 97.6 132.5375 
L 244.85 132.5375 
Q 248.05 132.5375 248.05 129.3375 
L 248.05 63.04 
Q 248.05 59.84 244.85 59.84 
L 97.6 59.84 
Q 94.4 59.84 94.4 63.04 
L 94.4 129.3375 
Q 94.4 132.5375 97.6 132.5375 
z
" style="fill:#ffffff;opacity:0.8;stroke:#cccccc;stroke-linejoin:miter;stroke-width:0.48;"/>
    </g>
    <g id="line2d_24">
     <path d="M 100.8 72.0925 
L 132.8 72.0925 
" style="fill:none;stroke:#0072b2;stroke-linecap:round;stroke-width:5;"/>
    </g>
    <g id="line2d_25"/>
    <g id="text_14">
     <!-- China -->
     <defs>
      <path d="M 58.796875 25.09375 
L 68.265625 22.703125 
Q 65.28125 11.03125 57.546875 4.90625 
Q 49.8125 -1.21875 38.625 -1.21875 
Q 27.046875 -1.21875 19.796875 3.484375 
Q 12.546875 8.203125 8.765625 17.140625 
Q 4.984375 26.078125 4.984375 36.328125 
Q 4.984375 47.515625 9.25 55.828125 
Q 13.53125 64.15625 21.40625 68.46875 
Q 29.296875 72.796875 38.765625 72.796875 
Q 49.515625 72.796875 56.828125 67.328125 
Q 64.15625 61.859375 67.046875 51.953125 
L 57.71875 49.75 
Q 55.21875 57.5625 50.484375 61.125 
Q 45.75 64.703125 38.578125 64.703125 
Q 30.328125 64.703125 24.78125 60.734375 
Q 19.234375 56.78125 16.984375 50.109375 
Q 14.75 43.453125 14.75 36.375 
Q 14.75 27.25 17.40625 20.4375 
Q 20.0625 13.625 25.671875 10.25 
Q 31.296875 6.890625 37.84375 6.890625 
Q 45.796875 6.890625 51.3125 11.46875 
Q 56.84375 16.0625 58.796875 25.09375 
z
" id="ArialMT-43"/>
     </defs>
     <g style="fill:#262626;" transform="translate(145.6 77.6925)scale(0.16 -0.16)">
      <use xlink:href="#ArialMT-43"/>
      <use x="72.216797" xlink:href="#ArialMT-68"/>
      <use x="127.832031" xlink:href="#ArialMT-69"/>
      <use x="150.048828" xlink:href="#ArialMT-6e"/>
      <use x="205.664062" xlink:href="#ArialMT-61"/>
     </g>
    </g>
    <g id="line2d_26">
     <path d="M 100.8 94.725 
L 132.8 94.725 
" style="fill:none;stroke:#009e73;stroke-linecap:round;stroke-width:5;"/>
    </g>
    <g id="line2d_27"/>
    <g id="text_15">
     <!-- India -->
     <defs>
      <path d="M 9.328125 0 
L 9.328125 71.578125 
L 18.796875 71.578125 
L 18.796875 0 
z
" id="ArialMT-49"/>
     </defs>
     <g style="fill:#262626;" transform="translate(145.6 100.325)scale(0.16 -0.16)">
      <use xlink:href="#ArialMT-49"/>
      <use x="27.783203" xlink:href="#ArialMT-6e"/>
      <use x="83.398438" xlink:href="#ArialMT-64"/>
      <use x="139.013672" xlink:href="#ArialMT-69"/>
      <use x="161.230469" xlink:href="#ArialMT-61"/>
     </g>
    </g>
    <g id="line2d_28">
     <path d="M 100.8 117.3575 
L 132.8 117.3575 
" style="fill:none;stroke:#d55e00;stroke-linecap:round;stroke-width:5;"/>
    </g>
    <g id="line2d_29"/>
    <g id="text_16">
     <!-- United States -->
     <defs>
      <path d="M 54.6875 71.578125 
L 64.15625 71.578125 
L 64.15625 30.21875 
Q 64.15625 19.4375 61.71875 13.078125 
Q 59.28125 6.734375 52.90625 2.75 
Q 46.53125 -1.21875 36.1875 -1.21875 
Q 26.125 -1.21875 19.71875 2.25 
Q 13.328125 5.71875 10.59375 12.28125 
Q 7.859375 18.84375 7.859375 30.21875 
L 7.859375 71.578125 
L 17.328125 71.578125 
L 17.328125 30.28125 
Q 17.328125 20.953125 19.0625 16.53125 
Q 20.796875 12.109375 25.015625 9.71875 
Q 29.25 7.328125 35.359375 7.328125 
Q 45.796875 7.328125 50.234375 12.0625 
Q 54.6875 16.796875 54.6875 30.28125 
z
" id="ArialMT-55"/>
      <path d="M 4.5 23 
L 13.421875 23.78125 
Q 14.0625 18.40625 16.375 14.96875 
Q 18.703125 11.53125 23.578125 9.40625 
Q 28.46875 7.28125 34.578125 7.28125 
Q 39.984375 7.28125 44.140625 8.890625 
Q 48.296875 10.5 50.3125 13.296875 
Q 52.34375 16.109375 52.34375 19.4375 
Q 52.34375 22.796875 50.390625 25.3125 
Q 48.4375 27.828125 43.953125 29.546875 
Q 41.0625 30.671875 31.203125 33.03125 
Q 21.34375 35.40625 17.390625 37.5 
Q 12.25 40.1875 9.734375 44.15625 
Q 7.234375 48.140625 7.234375 53.078125 
Q 7.234375 58.5 10.296875 63.203125 
Q 13.375 67.921875 19.28125 70.359375 
Q 25.203125 72.796875 32.421875 72.796875 
Q 40.375 72.796875 46.453125 70.234375 
Q 52.546875 67.671875 55.8125 62.6875 
Q 59.078125 57.71875 59.328125 51.421875 
L 50.25 50.734375 
Q 49.515625 57.515625 45.28125 60.984375 
Q 41.0625 64.453125 32.8125 64.453125 
Q 24.21875 64.453125 20.28125 61.296875 
Q 16.359375 58.15625 16.359375 53.71875 
Q 16.359375 49.859375 19.140625 47.359375 
Q 21.875 44.875 33.421875 42.265625 
Q 44.96875 39.65625 49.265625 37.703125 
Q 55.515625 34.8125 58.484375 30.390625 
Q 61.46875 25.984375 61.46875 20.21875 
Q 61.46875 14.5 58.203125 9.4375 
Q 54.9375 4.390625 48.796875 1.578125 
Q 42.671875 -1.21875 35.015625 -1.21875 
Q 25.296875 -1.21875 18.71875 1.609375 
Q 12.15625 4.4375 8.421875 10.125 
Q 4.6875 15.828125 4.5 23 
z
" id="ArialMT-53"/>
     </defs>
     <g style="fill:#262626;" transform="translate(145.6 122.9575)scale(0.16 -0.16)">
      <use xlink:href="#ArialMT-55"/>
      <use x="72.216797" xlink:href="#ArialMT-6e"/>
      <use x="127.832031" xlink:href="#ArialMT-69"/>
      <use x="150.048828" xlink:href="#ArialMT-74"/>
      <use x="177.832031" xlink:href="#ArialMT-65"/>
      <use x="233.447266" xlink:href="#ArialMT-64"/>
      <use x="289.0625" xlink:href="#ArialMT-20"/>
      <use x="316.845703" xlink:href="#ArialMT-53"/>
      <use x="383.544922" xlink:href="#ArialMT-74"/>
      <use x="411.328125" xlink:href="#ArialMT-61"/>
      <use x="466.943359" xlink:href="#ArialMT-74"/>
      <use x="494.726562" xlink:href="#ArialMT-65"/>
      <use x="550.341797" xlink:href="#ArialMT-73"/>
     </g>
    </g>
   </g>
  </g>
  <g id="text_17">
   <!-- India Will Soon Have the World's Largest Population -->
   <defs>
    <path d="M 6.84375 0 
L 6.84375 71.578125 
L 21.296875 71.578125 
L 21.296875 0 
z
" id="Arial-BoldMT-49"/>
    <path d="M 54.34375 0 
L 40.625 0 
L 40.625 26.46875 
Q 40.625 34.859375 39.75 37.328125 
Q 38.875 39.796875 36.890625 41.15625 
Q 34.90625 42.53125 32.125 42.53125 
Q 28.5625 42.53125 25.734375 40.578125 
Q 22.90625 38.625 21.84375 35.390625 
Q 20.796875 32.171875 20.796875 23.484375 
L 20.796875 0 
L 7.078125 0 
L 7.078125 51.859375 
L 19.828125 51.859375 
L 19.828125 44.234375 
Q 26.609375 53.03125 36.921875 53.03125 
Q 41.453125 53.03125 45.203125 51.390625 
Q 48.96875 49.75 50.890625 47.203125 
Q 52.828125 44.671875 53.578125 41.453125 
Q 54.34375 38.234375 54.34375 32.234375 
z
" id="Arial-BoldMT-6e"/>
    <path d="M 54.734375 0 
L 42 0 
L 42 7.625 
Q 38.8125 3.171875 34.484375 1 
Q 30.171875 -1.171875 25.78125 -1.171875 
Q 16.84375 -1.171875 10.46875 6.03125 
Q 4.109375 13.234375 4.109375 26.125 
Q 4.109375 39.3125 10.296875 46.171875 
Q 16.5 53.03125 25.984375 53.03125 
Q 34.671875 53.03125 41.015625 45.796875 
L 41.015625 71.578125 
L 54.734375 71.578125 
z
M 18.109375 27.046875 
Q 18.109375 18.75 20.40625 15.046875 
Q 23.734375 9.671875 29.6875 9.671875 
Q 34.421875 9.671875 37.734375 13.6875 
Q 41.0625 17.71875 41.0625 25.734375 
Q 41.0625 34.671875 37.84375 38.59375 
Q 34.625 42.53125 29.59375 42.53125 
Q 24.703125 42.53125 21.40625 38.640625 
Q 18.109375 34.765625 18.109375 27.046875 
z
" id="Arial-BoldMT-64"/>
    <path d="M 7.171875 58.890625 
L 7.171875 71.578125 
L 20.90625 71.578125 
L 20.90625 58.890625 
z
M 7.171875 0 
L 7.171875 51.859375 
L 20.90625 51.859375 
L 20.90625 0 
z
" id="Arial-BoldMT-69"/>
    <path d="M 17.4375 36.03125 
L 4.984375 38.28125 
Q 7.078125 45.796875 12.203125 49.40625 
Q 17.328125 53.03125 27.4375 53.03125 
Q 36.625 53.03125 41.109375 50.859375 
Q 45.609375 48.6875 47.4375 45.34375 
Q 49.265625 42 49.265625 33.0625 
L 49.125 17.046875 
Q 49.125 10.203125 49.78125 6.953125 
Q 50.4375 3.71875 52.25 0 
L 38.671875 0 
Q 38.140625 1.375 37.359375 4.046875 
Q 37.015625 5.28125 36.859375 5.671875 
Q 33.34375 2.25 29.34375 0.53125 
Q 25.34375 -1.171875 20.796875 -1.171875 
Q 12.796875 -1.171875 8.171875 3.171875 
Q 3.5625 7.515625 3.5625 14.15625 
Q 3.5625 18.5625 5.65625 22 
Q 7.765625 25.4375 11.546875 27.265625 
Q 15.328125 29.109375 22.46875 30.46875 
Q 32.078125 32.28125 35.796875 33.84375 
L 35.796875 35.203125 
Q 35.796875 39.15625 33.84375 40.84375 
Q 31.890625 42.53125 26.46875 42.53125 
Q 22.796875 42.53125 20.75 41.09375 
Q 18.703125 39.65625 17.4375 36.03125 
z
M 35.796875 24.90625 
Q 33.15625 24.03125 27.4375 22.796875 
Q 21.734375 21.578125 19.96875 20.40625 
Q 17.28125 18.5 17.28125 15.578125 
Q 17.28125 12.703125 19.421875 10.59375 
Q 21.578125 8.5 24.90625 8.5 
Q 28.609375 8.5 31.984375 10.9375 
Q 34.46875 12.796875 35.25 15.484375 
Q 35.796875 17.234375 35.796875 22.171875 
z
" id="Arial-BoldMT-61"/>
    <path id="Arial-BoldMT-20"/>
    <path d="M 17.4375 0 
L 0.34375 71.578125 
L 15.140625 71.578125 
L 25.921875 22.40625 
L 39.015625 71.578125 
L 56.203125 71.578125 
L 68.75 21.578125 
L 79.734375 71.578125 
L 94.28125 71.578125 
L 76.90625 0 
L 61.578125 0 
L 47.3125 53.515625 
L 33.109375 0 
z
" id="Arial-BoldMT-57"/>
    <path d="M 7.171875 0 
L 7.171875 71.578125 
L 20.90625 71.578125 
L 20.90625 0 
z
" id="Arial-BoldMT-6c"/>
    <path d="M 3.609375 23.296875 
L 17.671875 24.65625 
Q 18.953125 17.578125 22.828125 14.25 
Q 26.703125 10.9375 33.296875 10.9375 
Q 40.28125 10.9375 43.8125 13.890625 
Q 47.359375 16.84375 47.359375 20.796875 
Q 47.359375 23.34375 45.875 25.125 
Q 44.390625 26.90625 40.671875 28.21875 
Q 38.140625 29.109375 29.109375 31.34375 
Q 17.484375 34.234375 12.796875 38.421875 
Q 6.203125 44.34375 6.203125 52.828125 
Q 6.203125 58.296875 9.296875 63.0625 
Q 12.40625 67.828125 18.234375 70.3125 
Q 24.078125 72.796875 32.328125 72.796875 
Q 45.796875 72.796875 52.609375 66.890625 
Q 59.421875 60.984375 59.765625 51.125 
L 45.3125 50.484375 
Q 44.390625 56 41.328125 58.421875 
Q 38.28125 60.84375 32.171875 60.84375 
Q 25.875 60.84375 22.3125 58.25 
Q 20.015625 56.59375 20.015625 53.8125 
Q 20.015625 51.265625 22.171875 49.46875 
Q 24.90625 47.171875 35.453125 44.671875 
Q 46 42.1875 51.046875 39.515625 
Q 56.109375 36.859375 58.953125 32.25 
Q 61.8125 27.640625 61.8125 20.84375 
Q 61.8125 14.703125 58.390625 9.328125 
Q 54.984375 3.953125 48.734375 1.34375 
Q 42.484375 -1.265625 33.15625 -1.265625 
Q 19.578125 -1.265625 12.296875 5 
Q 5.03125 11.28125 3.609375 23.296875 
z
" id="Arial-BoldMT-53"/>
    <path d="M 4 26.65625 
Q 4 33.5 7.375 39.890625 
Q 10.75 46.296875 16.921875 49.65625 
Q 23.09375 53.03125 30.71875 53.03125 
Q 42.484375 53.03125 50 45.390625 
Q 57.515625 37.75 57.515625 26.078125 
Q 57.515625 14.3125 49.921875 6.5625 
Q 42.328125 -1.171875 30.8125 -1.171875 
Q 23.6875 -1.171875 17.21875 2.046875 
Q 10.75 5.28125 7.375 11.5 
Q 4 17.71875 4 26.65625 
z
M 18.0625 25.921875 
Q 18.0625 18.21875 21.71875 14.109375 
Q 25.390625 10.015625 30.765625 10.015625 
Q 36.140625 10.015625 39.765625 14.109375 
Q 43.40625 18.21875 43.40625 26.03125 
Q 43.40625 33.640625 39.765625 37.734375 
Q 36.140625 41.84375 30.765625 41.84375 
Q 25.390625 41.84375 21.71875 37.734375 
Q 18.0625 33.640625 18.0625 25.921875 
z
" id="Arial-BoldMT-6f"/>
    <path d="M 7.328125 0 
L 7.328125 71.578125 
L 21.78125 71.578125 
L 21.78125 43.40625 
L 50.09375 43.40625 
L 50.09375 71.578125 
L 64.546875 71.578125 
L 64.546875 0 
L 50.09375 0 
L 50.09375 31.296875 
L 21.78125 31.296875 
L 21.78125 0 
z
" id="Arial-BoldMT-48"/>
    <path d="M 21.4375 0 
L 0.53125 51.859375 
L 14.9375 51.859375 
L 24.703125 25.390625 
L 27.546875 16.546875 
Q 28.65625 19.921875 28.953125 21 
Q 29.640625 23.1875 30.421875 25.390625 
L 40.28125 51.859375 
L 54.390625 51.859375 
L 33.796875 0 
z
" id="Arial-BoldMT-76"/>
    <path d="M 37.203125 16.5 
L 50.875 14.203125 
Q 48.25 6.6875 42.546875 2.75 
Q 36.859375 -1.171875 28.328125 -1.171875 
Q 14.796875 -1.171875 8.296875 7.671875 
Q 3.171875 14.75 3.171875 25.53125 
Q 3.171875 38.421875 9.90625 45.71875 
Q 16.65625 53.03125 26.953125 53.03125 
Q 38.53125 53.03125 45.21875 45.390625 
Q 51.90625 37.75 51.609375 21.96875 
L 17.234375 21.96875 
Q 17.390625 15.875 20.5625 12.46875 
Q 23.734375 9.078125 28.46875 9.078125 
Q 31.6875 9.078125 33.875 10.828125 
Q 36.078125 12.59375 37.203125 16.5 
z
M 37.984375 30.375 
Q 37.84375 36.328125 34.90625 39.421875 
Q 31.984375 42.53125 27.78125 42.53125 
Q 23.296875 42.53125 20.359375 39.265625 
Q 17.4375 35.984375 17.484375 30.375 
z
" id="Arial-BoldMT-65"/>
    <path d="M 30.953125 51.859375 
L 30.953125 40.921875 
L 21.578125 40.921875 
L 21.578125 20.015625 
Q 21.578125 13.671875 21.84375 12.625 
Q 22.125 11.578125 23.078125 10.890625 
Q 24.03125 10.203125 25.390625 10.203125 
Q 27.296875 10.203125 30.90625 11.53125 
L 32.078125 0.875 
Q 27.296875 -1.171875 21.234375 -1.171875 
Q 17.53125 -1.171875 14.546875 0.0625 
Q 11.578125 1.3125 10.1875 3.296875 
Q 8.796875 5.28125 8.25 8.640625 
Q 7.8125 11.03125 7.8125 18.3125 
L 7.8125 40.921875 
L 1.515625 40.921875 
L 1.515625 51.859375 
L 7.8125 51.859375 
L 7.8125 62.15625 
L 21.578125 70.171875 
L 21.578125 51.859375 
z
" id="Arial-BoldMT-74"/>
    <path d="M 20.84375 71.578125 
L 20.84375 45.265625 
Q 27.484375 53.03125 36.71875 53.03125 
Q 41.453125 53.03125 45.265625 51.265625 
Q 49.078125 49.515625 51 46.78125 
Q 52.9375 44.046875 53.640625 40.71875 
Q 54.34375 37.40625 54.34375 30.421875 
L 54.34375 0 
L 40.625 0 
L 40.625 27.390625 
Q 40.625 35.546875 39.84375 37.734375 
Q 39.0625 39.9375 37.078125 41.234375 
Q 35.109375 42.53125 32.125 42.53125 
Q 28.71875 42.53125 26.03125 40.859375 
Q 23.34375 39.203125 22.09375 35.859375 
Q 20.84375 32.515625 20.84375 25.984375 
L 20.84375 0 
L 7.125 0 
L 7.125 71.578125 
z
" id="Arial-BoldMT-68"/>
    <path d="M 20.3125 0 
L 6.59375 0 
L 6.59375 51.859375 
L 19.34375 51.859375 
L 19.34375 44.484375 
Q 22.609375 49.703125 25.21875 51.359375 
Q 27.828125 53.03125 31.15625 53.03125 
Q 35.84375 53.03125 40.1875 50.4375 
L 35.9375 38.484375 
Q 32.46875 40.71875 29.5 40.71875 
Q 26.609375 40.71875 24.609375 39.125 
Q 22.609375 37.546875 21.453125 33.390625 
Q 20.3125 29.25 20.3125 16.015625 
z
" id="Arial-BoldMT-72"/>
    <path d="M 7.078125 46.140625 
L 4.5 59.46875 
L 4.5 71.578125 
L 19.4375 71.578125 
L 19.4375 59.46875 
L 17.1875 46.140625 
z
" id="Arial-BoldMT-27"/>
    <path d="M 2.34375 14.796875 
L 16.109375 16.890625 
Q 17 12.890625 19.671875 10.8125 
Q 22.359375 8.734375 27.203125 8.734375 
Q 32.515625 8.734375 35.203125 10.6875 
Q 37.015625 12.0625 37.015625 14.359375 
Q 37.015625 15.921875 36.03125 16.9375 
Q 35.015625 17.921875 31.453125 18.75 
Q 14.84375 22.40625 10.40625 25.4375 
Q 4.25 29.640625 4.25 37.109375 
Q 4.25 43.84375 9.5625 48.4375 
Q 14.890625 53.03125 26.078125 53.03125 
Q 36.71875 53.03125 41.890625 49.5625 
Q 47.078125 46.09375 49.03125 39.3125 
L 36.078125 36.921875 
Q 35.25 39.9375 32.921875 41.546875 
Q 30.609375 43.171875 26.3125 43.171875 
Q 20.90625 43.171875 18.5625 41.65625 
Q 17 40.578125 17 38.875 
Q 17 37.40625 18.359375 36.375 
Q 20.21875 35.015625 31.171875 32.515625 
Q 42.140625 30.03125 46.484375 26.421875 
Q 50.78125 22.75 50.78125 16.21875 
Q 50.78125 9.078125 44.828125 3.953125 
Q 38.875 -1.171875 27.203125 -1.171875 
Q 16.609375 -1.171875 10.421875 3.125 
Q 4.25 7.421875 2.34375 14.796875 
z
" id="Arial-BoldMT-73"/>
    <path d="M 7.671875 0 
L 7.671875 71 
L 22.125 71 
L 22.125 12.0625 
L 58.0625 12.0625 
L 58.0625 0 
z
" id="Arial-BoldMT-4c"/>
    <path d="M 5.90625 -3.421875 
L 21.578125 -5.328125 
Q 21.96875 -8.0625 23.390625 -9.078125 
Q 25.34375 -10.546875 29.546875 -10.546875 
Q 34.90625 -10.546875 37.59375 -8.9375 
Q 39.40625 -7.859375 40.328125 -5.46875 
Q 40.96875 -3.765625 40.96875 0.828125 
L 40.96875 8.40625 
Q 34.8125 0 25.4375 0 
Q 14.984375 0 8.890625 8.84375 
Q 4.109375 15.828125 4.109375 26.21875 
Q 4.109375 39.265625 10.375 46.140625 
Q 16.65625 53.03125 25.984375 53.03125 
Q 35.59375 53.03125 41.84375 44.578125 
L 41.84375 51.859375 
L 54.6875 51.859375 
L 54.6875 5.328125 
Q 54.6875 -3.859375 53.171875 -8.390625 
Q 51.65625 -12.9375 48.921875 -15.515625 
Q 46.1875 -18.109375 41.625 -19.578125 
Q 37.0625 -21.046875 30.078125 -21.046875 
Q 16.890625 -21.046875 11.375 -16.53125 
Q 5.859375 -12.015625 5.859375 -5.078125 
Q 5.859375 -4.390625 5.90625 -3.421875 
z
M 18.171875 27 
Q 18.171875 18.75 21.359375 14.90625 
Q 24.5625 11.078125 29.25 11.078125 
Q 34.28125 11.078125 37.75 15.015625 
Q 41.21875 18.953125 41.21875 26.65625 
Q 41.21875 34.71875 37.890625 38.625 
Q 34.578125 42.53125 29.5 42.53125 
Q 24.5625 42.53125 21.359375 38.6875 
Q 18.171875 34.859375 18.171875 27 
z
" id="Arial-BoldMT-67"/>
    <path d="M 7.28125 0 
L 7.28125 71.578125 
L 30.46875 71.578125 
Q 43.65625 71.578125 47.65625 70.515625 
Q 53.8125 68.890625 57.953125 63.5 
Q 62.109375 58.109375 62.109375 49.5625 
Q 62.109375 42.96875 59.71875 38.46875 
Q 57.328125 33.984375 53.640625 31.421875 
Q 49.953125 28.859375 46.140625 28.03125 
Q 40.96875 27 31.15625 27 
L 21.734375 27 
L 21.734375 0 
z
M 21.734375 59.46875 
L 21.734375 39.15625 
L 29.640625 39.15625 
Q 38.1875 39.15625 41.0625 40.28125 
Q 43.953125 41.40625 45.578125 43.796875 
Q 47.21875 46.1875 47.21875 49.359375 
Q 47.21875 53.265625 44.921875 55.796875 
Q 42.625 58.34375 39.109375 58.984375 
Q 36.53125 59.46875 28.71875 59.46875 
z
" id="Arial-BoldMT-50"/>
    <path d="M 6.78125 51.859375 
L 19.578125 51.859375 
L 19.578125 44.234375 
Q 22.078125 48.140625 26.3125 50.578125 
Q 30.5625 53.03125 35.75 53.03125 
Q 44.78125 53.03125 51.078125 45.953125 
Q 57.375 38.875 57.375 26.21875 
Q 57.375 13.234375 51.015625 6.03125 
Q 44.671875 -1.171875 35.640625 -1.171875 
Q 31.34375 -1.171875 27.84375 0.53125 
Q 24.359375 2.25 20.515625 6.390625 
L 20.515625 -19.734375 
L 6.78125 -19.734375 
z
M 20.359375 26.8125 
Q 20.359375 18.0625 23.828125 13.890625 
Q 27.296875 9.71875 32.28125 9.71875 
Q 37.0625 9.71875 40.234375 13.546875 
Q 43.40625 17.390625 43.40625 26.125 
Q 43.40625 34.28125 40.125 38.234375 
Q 36.859375 42.1875 32.03125 42.1875 
Q 27 42.1875 23.671875 38.296875 
Q 20.359375 34.421875 20.359375 26.8125 
z
" id="Arial-BoldMT-70"/>
    <path d="M 41.3125 0 
L 41.3125 7.765625 
Q 38.484375 3.609375 33.859375 1.21875 
Q 29.25 -1.171875 24.125 -1.171875 
Q 18.890625 -1.171875 14.734375 1.125 
Q 10.59375 3.421875 8.734375 7.5625 
Q 6.890625 11.71875 6.890625 19.046875 
L 6.890625 51.859375 
L 20.609375 51.859375 
L 20.609375 28.03125 
Q 20.609375 17.09375 21.359375 14.625 
Q 22.125 12.15625 24.125 10.71875 
Q 26.125 9.28125 29.203125 9.28125 
Q 32.71875 9.28125 35.5 11.203125 
Q 38.28125 13.140625 39.296875 15.984375 
Q 40.328125 18.84375 40.328125 29.984375 
L 40.328125 51.859375 
L 54.046875 51.859375 
L 54.046875 0 
z
" id="Arial-BoldMT-75"/>
   </defs>
   <g style="fill:#262626;" transform="translate(61.813125 25.92)scale(0.24 -0.24)">
    <use xlink:href="#Arial-BoldMT-49"/>
    <use x="27.783203" xlink:href="#Arial-BoldMT-6e"/>
    <use x="88.867188" xlink:href="#Arial-BoldMT-64"/>
    <use x="149.951172" xlink:href="#Arial-BoldMT-69"/>
    <use x="177.734375" xlink:href="#Arial-BoldMT-61"/>
    <use x="233.349609" xlink:href="#Arial-BoldMT-20"/>
    <use x="261.132812" xlink:href="#Arial-BoldMT-57"/>
    <use x="355.517578" xlink:href="#Arial-BoldMT-69"/>
    <use x="383.300781" xlink:href="#Arial-BoldMT-6c"/>
    <use x="411.083984" xlink:href="#Arial-BoldMT-6c"/>
    <use x="438.867188" xlink:href="#Arial-BoldMT-20"/>
    <use x="466.650391" xlink:href="#Arial-BoldMT-53"/>
    <use x="533.349609" xlink:href="#Arial-BoldMT-6f"/>
    <use x="594.433594" xlink:href="#Arial-BoldMT-6f"/>
    <use x="655.517578" xlink:href="#Arial-BoldMT-6e"/>
    <use x="716.601562" xlink:href="#Arial-BoldMT-20"/>
    <use x="744.384766" xlink:href="#Arial-BoldMT-48"/>
    <use x="816.601562" xlink:href="#Arial-BoldMT-61"/>
    <use x="872.216797" xlink:href="#Arial-BoldMT-76"/>
    <use x="927.832031" xlink:href="#Arial-BoldMT-65"/>
    <use x="983.447266" xlink:href="#Arial-BoldMT-20"/>
    <use x="1011.230469" xlink:href="#Arial-BoldMT-74"/>
    <use x="1044.53125" xlink:href="#Arial-BoldMT-68"/>
    <use x="1105.615234" xlink:href="#Arial-BoldMT-65"/>
    <use x="1161.230469" xlink:href="#Arial-BoldMT-20"/>
    <use x="1189.013672" xlink:href="#Arial-BoldMT-57"/>
    <use x="1283.382812" xlink:href="#Arial-BoldMT-6f"/>
    <use x="1344.466797" xlink:href="#Arial-BoldMT-72"/>
    <use x="1383.382812" xlink:href="#Arial-BoldMT-6c"/>
    <use x="1411.166016" xlink:href="#Arial-BoldMT-64"/>
    <use x="1472.25" xlink:href="#Arial-BoldMT-27"/>
    <use x="1496.029297" xlink:href="#Arial-BoldMT-73"/>
    <use x="1551.644531" xlink:href="#Arial-BoldMT-20"/>
    <use x="1579.427734" xlink:href="#Arial-BoldMT-4c"/>
    <use x="1640.511719" xlink:href="#Arial-BoldMT-61"/>
    <use x="1696.126953" xlink:href="#Arial-BoldMT-72"/>
    <use x="1735.042969" xlink:href="#Arial-BoldMT-67"/>
    <use x="1796.126953" xlink:href="#Arial-BoldMT-65"/>
    <use x="1851.742188" xlink:href="#Arial-BoldMT-73"/>
    <use x="1907.357422" xlink:href="#Arial-BoldMT-74"/>
    <use x="1940.658203" xlink:href="#Arial-BoldMT-20"/>
    <use x="1968.441406" xlink:href="#Arial-BoldMT-50"/>
    <use x="2035.140625" xlink:href="#Arial-BoldMT-6f"/>
    <use x="2096.224609" xlink:href="#Arial-BoldMT-70"/>
    <use x="2157.308594" xlink:href="#Arial-BoldMT-75"/>
    <use x="2218.392578" xlink:href="#Arial-BoldMT-6c"/>
    <use x="2246.175781" xlink:href="#Arial-BoldMT-61"/>
    <use x="2301.791016" xlink:href="#Arial-BoldMT-74"/>
    <use x="2335.091797" xlink:href="#Arial-BoldMT-69"/>
    <use x="2362.875" xlink:href="#Arial-BoldMT-6f"/>
    <use x="2423.958984" xlink:href="#Arial-BoldMT-6e"/>
   </g>
  </g>
  <g id="text_18">
   <!-- Data source: https://ourworldindata.org/world-population-growth/ (Our World in Data) -->
   <defs>
    <path d="M 7.71875 0 
L 7.71875 71.578125 
L 32.375 71.578125 
Q 40.71875 71.578125 45.125 70.5625 
Q 51.265625 69.140625 55.609375 65.4375 
Q 61.28125 60.640625 64.078125 53.1875 
Q 66.890625 45.75 66.890625 36.1875 
Q 66.890625 28.03125 64.984375 21.734375 
Q 63.09375 15.4375 60.109375 11.296875 
Q 57.125 7.171875 53.578125 4.796875 
Q 50.046875 2.4375 45.046875 1.21875 
Q 40.046875 0 33.546875 0 
z
M 17.1875 8.453125 
L 32.46875 8.453125 
Q 39.546875 8.453125 43.578125 9.765625 
Q 47.609375 11.078125 50 13.484375 
Q 53.375 16.84375 55.25 22.53125 
Q 57.125 28.21875 57.125 36.328125 
Q 57.125 47.5625 53.4375 53.59375 
Q 49.75 59.625 44.484375 61.671875 
Q 40.671875 63.140625 32.234375 63.140625 
L 17.1875 63.140625 
z
" id="ArialMT-44"/>
    <path d="M 40.4375 19 
L 49.078125 17.875 
Q 47.65625 8.9375 41.8125 3.875 
Q 35.984375 -1.171875 27.484375 -1.171875 
Q 16.84375 -1.171875 10.375 5.78125 
Q 3.90625 12.75 3.90625 25.734375 
Q 3.90625 34.125 6.6875 40.421875 
Q 9.46875 46.734375 15.15625 49.875 
Q 20.84375 53.03125 27.546875 53.03125 
Q 35.984375 53.03125 41.359375 48.75 
Q 46.734375 44.484375 48.25 36.625 
L 39.703125 35.296875 
Q 38.484375 40.53125 35.375 43.15625 
Q 32.28125 45.796875 27.875 45.796875 
Q 21.234375 45.796875 17.078125 41.03125 
Q 12.9375 36.28125 12.9375 25.984375 
Q 12.9375 15.53125 16.9375 10.796875 
Q 20.953125 6.0625 27.390625 6.0625 
Q 32.5625 6.0625 36.03125 9.234375 
Q 39.5 12.40625 40.4375 19 
z
" id="ArialMT-63"/>
    <path d="M 9.03125 41.84375 
L 9.03125 51.859375 
L 19.046875 51.859375 
L 19.046875 41.84375 
z
M 9.03125 0 
L 9.03125 10.015625 
L 19.046875 10.015625 
L 19.046875 0 
z
" id="ArialMT-3a"/>
    <path d="M 0 -1.21875 
L 20.75 72.796875 
L 27.78125 72.796875 
L 7.078125 -1.21875 
z
" id="ArialMT-2f"/>
    <path d="M 4.984375 -4.296875 
L 13.53125 -5.5625 
Q 14.0625 -9.515625 16.5 -11.328125 
Q 19.78125 -13.765625 25.4375 -13.765625 
Q 31.546875 -13.765625 34.859375 -11.328125 
Q 38.1875 -8.890625 39.359375 -4.5 
Q 40.046875 -1.8125 39.984375 6.78125 
Q 34.234375 0 25.640625 0 
Q 14.9375 0 9.078125 7.71875 
Q 3.21875 15.4375 3.21875 26.21875 
Q 3.21875 33.640625 5.90625 39.90625 
Q 8.59375 46.1875 13.6875 49.609375 
Q 18.796875 53.03125 25.6875 53.03125 
Q 34.859375 53.03125 40.828125 45.609375 
L 40.828125 51.859375 
L 48.921875 51.859375 
L 48.921875 7.03125 
Q 48.921875 -5.078125 46.453125 -10.125 
Q 44 -15.1875 38.640625 -18.109375 
Q 33.296875 -21.046875 25.484375 -21.046875 
Q 16.21875 -21.046875 10.5 -16.875 
Q 4.78125 -12.703125 4.984375 -4.296875 
z
M 12.25 26.859375 
Q 12.25 16.65625 16.296875 11.96875 
Q 20.359375 7.28125 26.46875 7.28125 
Q 32.515625 7.28125 36.609375 11.9375 
Q 40.71875 16.609375 40.71875 26.5625 
Q 40.71875 36.078125 36.5 40.90625 
Q 32.28125 45.75 26.3125 45.75 
Q 20.453125 45.75 16.34375 40.984375 
Q 12.25 36.234375 12.25 26.859375 
z
" id="ArialMT-67"/>
    <path d="M 3.171875 21.484375 
L 3.171875 30.328125 
L 30.171875 30.328125 
L 30.171875 21.484375 
z
" id="ArialMT-2d"/>
    <path d="M 23.390625 -21.046875 
Q 16.109375 -11.859375 11.078125 0.4375 
Q 6.0625 12.75 6.0625 25.921875 
Q 6.0625 37.546875 9.8125 48.1875 
Q 14.203125 60.546875 23.390625 72.796875 
L 29.6875 72.796875 
Q 23.78125 62.640625 21.875 58.296875 
Q 18.890625 51.5625 17.1875 44.234375 
Q 15.09375 35.109375 15.09375 25.875 
Q 15.09375 2.390625 29.6875 -21.046875 
z
" id="ArialMT-28"/>
    <path d="M 4.828125 34.859375 
Q 4.828125 52.6875 14.390625 62.765625 
Q 23.96875 72.859375 39.109375 72.859375 
Q 49.03125 72.859375 56.984375 68.109375 
Q 64.9375 63.375 69.109375 54.90625 
Q 73.296875 46.4375 73.296875 35.6875 
Q 73.296875 24.8125 68.890625 16.21875 
Q 64.5 7.625 56.4375 3.203125 
Q 48.390625 -1.21875 39.0625 -1.21875 
Q 28.953125 -1.21875 20.984375 3.65625 
Q 13.03125 8.546875 8.921875 16.984375 
Q 4.828125 25.4375 4.828125 34.859375 
z
M 14.59375 34.71875 
Q 14.59375 21.78125 21.546875 14.328125 
Q 28.515625 6.890625 39.015625 6.890625 
Q 49.703125 6.890625 56.609375 14.40625 
Q 63.53125 21.921875 63.53125 35.75 
Q 63.53125 44.484375 60.578125 51 
Q 57.625 57.515625 51.921875 61.109375 
Q 46.234375 64.703125 39.15625 64.703125 
Q 29.109375 64.703125 21.84375 57.78125 
Q 14.59375 50.875 14.59375 34.71875 
z
" id="ArialMT-4f"/>
    <path d="M 20.21875 0 
L 1.21875 71.578125 
L 10.9375 71.578125 
L 21.828125 24.65625 
Q 23.578125 17.28125 24.859375 10.015625 
Q 27.59375 21.484375 28.078125 23.25 
L 41.703125 71.578125 
L 53.125 71.578125 
L 63.375 35.359375 
Q 67.234375 21.875 68.953125 10.015625 
Q 70.3125 16.796875 72.515625 25.59375 
L 83.734375 71.578125 
L 93.265625 71.578125 
L 73.640625 0 
L 64.5 0 
L 49.421875 54.546875 
Q 47.515625 61.375 47.171875 62.9375 
Q 46.046875 58.015625 45.0625 54.546875 
L 29.890625 0 
z
" id="ArialMT-57"/>
    <path d="M 12.359375 -21.046875 
L 6.0625 -21.046875 
Q 20.65625 2.390625 20.65625 25.875 
Q 20.65625 35.0625 18.5625 44.09375 
Q 16.890625 51.421875 13.921875 58.15625 
Q 12.015625 62.546875 6.0625 72.796875 
L 12.359375 72.796875 
Q 21.53125 60.546875 25.921875 48.1875 
Q 29.6875 37.546875 29.6875 25.921875 
Q 29.6875 12.75 24.625 0.4375 
Q 19.578125 -11.859375 12.359375 -21.046875 
z
" id="ArialMT-29"/>
   </defs>
   <g style="fill:#262626;" transform="translate(172.985156 401.76)scale(0.1 -0.1)">
    <use xlink:href="#ArialMT-44"/>
    <use x="72.216797" xlink:href="#ArialMT-61"/>
    <use x="127.832031" xlink:href="#ArialMT-74"/>
    <use x="155.615234" xlink:href="#ArialMT-61"/>
    <use x="211.230469" xlink:href="#ArialMT-20"/>
    <use x="239.013672" xlink:href="#ArialMT-73"/>
    <use x="289.013672" xlink:href="#ArialMT-6f"/>
    <use x="344.628906" xlink:href="#ArialMT-75"/>
    <use x="400.244141" xlink:href="#ArialMT-72"/>
    <use x="433.544922" xlink:href="#ArialMT-63"/>
    <use x="483.544922" xlink:href="#ArialMT-65"/>
    <use x="539.160156" xlink:href="#ArialMT-3a"/>
    <use x="566.943359" xlink:href="#ArialMT-20"/>
    <use x="594.726562" xlink:href="#ArialMT-68"/>
    <use x="650.341797" xlink:href="#ArialMT-74"/>
    <use x="678.125" xlink:href="#ArialMT-74"/>
    <use x="705.908203" xlink:href="#ArialMT-70"/>
    <use x="761.523438" xlink:href="#ArialMT-73"/>
    <use x="811.523438" xlink:href="#ArialMT-3a"/>
    <use x="839.306641" xlink:href="#ArialMT-2f"/>
    <use x="867.089844" xlink:href="#ArialMT-2f"/>
    <use x="894.873047" xlink:href="#ArialMT-6f"/>
    <use x="950.488281" xlink:href="#ArialMT-75"/>
    <use x="1006.103516" xlink:href="#ArialMT-72"/>
    <use x="1039.404297" xlink:href="#ArialMT-77"/>
    <use x="1111.621094" xlink:href="#ArialMT-6f"/>
    <use x="1167.236328" xlink:href="#ArialMT-72"/>
    <use x="1200.537109" xlink:href="#ArialMT-6c"/>
    <use x="1222.753906" xlink:href="#ArialMT-64"/>
    <use x="1278.369141" xlink:href="#ArialMT-69"/>
    <use x="1300.585938" xlink:href="#ArialMT-6e"/>
    <use x="1356.201172" xlink:href="#ArialMT-64"/>
    <use x="1411.816406" xlink:href="#ArialMT-61"/>
    <use x="1467.431641" xlink:href="#ArialMT-74"/>
    <use x="1495.214844" xlink:href="#ArialMT-61"/>
    <use x="1550.830078" xlink:href="#ArialMT-2e"/>
    <use x="1578.613281" xlink:href="#ArialMT-6f"/>
    <use x="1634.228516" xlink:href="#ArialMT-72"/>
    <use x="1667.529297" xlink:href="#ArialMT-67"/>
    <use x="1723.144531" xlink:href="#ArialMT-2f"/>
    <use x="1750.927734" xlink:href="#ArialMT-77"/>
    <use x="1823.144531" xlink:href="#ArialMT-6f"/>
    <use x="1878.759766" xlink:href="#ArialMT-72"/>
    <use x="1912.060547" xlink:href="#ArialMT-6c"/>
    <use x="1934.277344" xlink:href="#ArialMT-64"/>
    <use x="1989.892578" xlink:href="#ArialMT-2d"/>
    <use x="2023.193359" xlink:href="#ArialMT-70"/>
    <use x="2078.808594" xlink:href="#ArialMT-6f"/>
    <use x="2134.423828" xlink:href="#ArialMT-70"/>
    <use x="2190.039062" xlink:href="#ArialMT-75"/>
    <use x="2245.654297" xlink:href="#ArialMT-6c"/>
    <use x="2267.871094" xlink:href="#ArialMT-61"/>
    <use x="2323.486328" xlink:href="#ArialMT-74"/>
    <use x="2351.269531" xlink:href="#ArialMT-69"/>
    <use x="2373.486328" xlink:href="#ArialMT-6f"/>
    <use x="2429.101562" xlink:href="#ArialMT-6e"/>
    <use x="2484.716797" xlink:href="#ArialMT-2d"/>
    <use x="2518.017578" xlink:href="#ArialMT-67"/>
    <use x="2573.632812" xlink:href="#ArialMT-72"/>
    <use x="2606.933594" xlink:href="#ArialMT-6f"/>
    <use x="2662.548828" xlink:href="#ArialMT-77"/>
    <use x="2734.765625" xlink:href="#ArialMT-74"/>
    <use x="2762.548828" xlink:href="#ArialMT-68"/>
    <use x="2818.164062" xlink:href="#ArialMT-2f"/>
    <use x="2845.947266" xlink:href="#ArialMT-20"/>
    <use x="2873.730469" xlink:href="#ArialMT-28"/>
    <use x="2907.03125" xlink:href="#ArialMT-4f"/>
    <use x="2984.814453" xlink:href="#ArialMT-75"/>
    <use x="3040.429688" xlink:href="#ArialMT-72"/>
    <use x="3073.730469" xlink:href="#ArialMT-20"/>
    <use x="3101.513672" xlink:href="#ArialMT-57"/>
    <use x="3195.882812" xlink:href="#ArialMT-6f"/>
    <use x="3251.498047" xlink:href="#ArialMT-72"/>
    <use x="3284.798828" xlink:href="#ArialMT-6c"/>
    <use x="3307.015625" xlink:href="#ArialMT-64"/>
    <use x="3362.630859" xlink:href="#ArialMT-20"/>
    <use x="3390.414062" xlink:href="#ArialMT-69"/>
    <use x="3412.630859" xlink:href="#ArialMT-6e"/>
    <use x="3468.246094" xlink:href="#ArialMT-20"/>
    <use x="3496.029297" xlink:href="#ArialMT-44"/>
    <use x="3568.246094" xlink:href="#ArialMT-61"/>
    <use x="3623.861328" xlink:href="#ArialMT-74"/>
    <use x="3651.644531" xlink:href="#ArialMT-61"/>
    <use x="3707.259766" xlink:href="#ArialMT-29"/>
   </g>
  </g>
  <g id="text_19">
   <!-- ChartYourWorld.org -->
   <g style="fill:#262626;" transform="translate(306.66 423.36)scale(0.12 -0.12)">
    <use xlink:href="#ArialMT-43"/>
    <use x="72.216797" xlink:href="#ArialMT-68"/>
    <use x="127.832031" xlink:href="#ArialMT-61"/>
    <use x="183.447266" xlink:href="#ArialMT-72"/>
    <use x="216.748047" xlink:href="#ArialMT-74"/>
    <use x="244.53125" xlink:href="#ArialMT-59"/>
    <use x="311.089844" xlink:href="#ArialMT-6f"/>
    <use x="366.705078" xlink:href="#ArialMT-75"/>
    <use x="422.320312" xlink:href="#ArialMT-72"/>
    <use x="455.621094" xlink:href="#ArialMT-57"/>
    <use x="549.990234" xlink:href="#ArialMT-6f"/>
    <use x="605.605469" xlink:href="#ArialMT-72"/>
    <use x="638.90625" xlink:href="#ArialMT-6c"/>
    <use x="661.123047" xlink:href="#ArialMT-64"/>
    <use x="716.738281" xlink:href="#ArialMT-2e"/>
    <use x="744.521484" xlink:href="#ArialMT-6f"/>
    <use x="800.136719" xlink:href="#ArialMT-72"/>
    <use x="833.4375" xlink:href="#ArialMT-67"/>
   </g>
  </g>
 </g>
 <defs>
  <clipPath id="p68b9759d4f">
   <rect height="306.72" width="547.2" x="86.4" y="51.84"/>
  </clipPath>
 </defs>
</svg>
